<svg width="24" height="24" viewBox="0 0 24 24" fill="none" xmlns="http://www.w3.org/2000/svg">
<path fill-rule="evenodd" clip-rule="evenodd" d="M17.2705 11.9781C17.3432 12.0507 17.401 12.1369 17.4403 12.2318C17.4797 12.3267 17.5 12.4285 17.5 12.5312C17.5 12.634 17.4797 12.7358 17.4403 12.8307C17.401 12.9256 17.3432 13.0118 17.2705 13.0844L12.583 17.7719C12.5104 17.8446 12.4242 17.9023 12.3293 17.9417C12.2344 17.9811 12.1326 18.0014 12.0299 18.0014C11.9271 18.0014 11.8253 17.9811 11.7304 17.9417C11.6355 17.9023 11.5493 17.8446 11.4767 17.7719L6.78923 13.0844C6.64253 12.9377 6.56012 12.7387 6.56012 12.5312C6.56012 12.3238 6.64253 12.1248 6.78923 11.9781C6.93593 11.8314 7.13489 11.749 7.34236 11.749C7.54982 11.749 7.74878 11.8314 7.89548 11.9781L12.0299 16.1141L16.1642 11.9781C16.2368 11.9054 16.323 11.8476 16.4179 11.8083C16.5128 11.7689 16.6146 11.7486 16.7174 11.7486C16.8201 11.7486 16.9219 11.7689 17.0168 11.8083C17.1117 11.8476 17.1979 11.9054 17.2705 11.9781Z" fill="#202124"/>
<path fill-rule="evenodd" clip-rule="evenodd" d="M12.0299 5.5C12.2371 5.5 12.4358 5.58231 12.5823 5.72882C12.7288 5.87534 12.8112 6.07405 12.8112 6.28125L12.8112 16.4375C12.8112 16.6447 12.7288 16.8434 12.5823 16.9899C12.4358 17.1364 12.2371 17.2188 12.0299 17.2188C11.8227 17.2188 11.624 17.1364 11.4775 16.9899C11.331 16.8434 11.2487 16.6447 11.2487 16.4375L11.2487 6.28125C11.2487 6.07405 11.331 5.87534 11.4775 5.72882C11.624 5.58231 11.8227 5.5 12.0299 5.5Z" fill="#202124"/>
</svg>
